<?xml version="1.0" encoding="utf-8"?>
<!-- Generator: Adobe Illustrator 26.4.0, SVG Export Plug-In . SVG Version: 6.00 Build 0)  -->
<svg version="1.1" id="Layer_1" xmlns="http://www.w3.org/2000/svg" xmlns:xlink="http://www.w3.org/1999/xlink" x="0px" y="0px"
	 viewBox="0 0 729 227" style="enable-background:new 0 0 729 227;" xml:space="preserve">
<style type="text/css">
	.st0{fill:none;stroke:#000000;stroke-width:65;stroke-miterlimit:10;}
	.st1{fill:none;stroke:#000000;stroke-width:70;stroke-miterlimit:10;}
	.st2{fill:none;}
	.st3{fill:none;stroke:#000000;stroke-miterlimit:10;}
	.st4{fill:#E8E1C5;}
	.st5{fill:#E5D7A8;}
	.st6{fill:#FFFFFF;}
	.st7{fill:#2A628F;}
	.st8{fill:#16324F;}
</style>
<g>
	<g>
		<path class="st7" d="M113.23,78.75c2.59,0,5.16,0.28,7.65,0.85c0.89,0.2,1.79-0.32,2.03-1.21l6.02-21.89
			c0.26-0.93-0.31-1.89-1.25-2.12c-4.71-1.15-9.57-1.74-14.46-1.74c-33.48,0-60.72,27.31-60.72,60.87
			c0,27.28,18.02,51.11,44.03,58.54c0.91,0.26,1.86-0.28,2.1-1.21l5.6-22.05c0.22-0.88-0.29-1.76-1.15-2.03
			c-14.52-4.43-24.53-17.88-24.53-33.25C78.56,94.34,94.11,78.75,113.23,78.75z"/>
		<path class="st8" d="M193.03,100.84h-24.29h-24.08c-1.09,0-1.97,0.88-1.97,1.97v22.17c0,1.09,0.88,1.97,1.97,1.97h24.08v52.99
			c0,0.54-0.24,1.05-0.66,1.39c-15.9,12.94-36.42,20.42-58.66,19.47c-46.44-2-83.33-40.63-83.37-87.23
			c-0.04-48.22,39.08-87.46,87.18-87.46c7.35,0,14.64,0.91,21.68,2.72c0.86,0.22,1.74-0.3,1.97-1.16l6.05-22.02
			c0.24-0.88-0.28-1.79-1.16-2.02C132.5,1.23,122.9,0,113.23,0C82.98,0,54.55,11.81,33.16,33.24C6.48,60-5.25,97.75,2.21,136.31
			c2.75,14.22,8.35,27.76,16.43,39.77C40.56,208.62,75.49,227,113.23,227c19.76,0,38.76-5.04,55.51-14.52
			c8.88-5.02,17.14-11.29,24.55-18.72c0.34-0.34,0.68-0.69,1.02-1.04c0.31-0.32,0.48-0.75,0.48-1.2v-47.18v-41.73
			C194.79,101.63,194,100.84,193.03,100.84z"/>
	</g>
	<g>
		<path d="M262.74,199.65c0,1.26-0.19,2.4-0.57,3.41c-0.38,1.01-0.91,1.87-1.59,2.58c-0.68,0.71-1.5,1.25-2.45,1.63
			c-0.95,0.38-2.01,0.57-3.17,0.57h-5.95v-16.34h5.95c1.16,0,2.22,0.19,3.17,0.57c0.95,0.38,1.77,0.92,2.45,1.63
			c0.68,0.71,1.21,1.57,1.59,2.58C262.55,197.26,262.74,198.39,262.74,199.65z M261.51,199.65c0-1.14-0.16-2.16-0.47-3.05
			c-0.32-0.89-0.76-1.65-1.33-2.26c-0.57-0.62-1.26-1.09-2.07-1.41c-0.81-0.32-1.7-0.49-2.68-0.49h-4.76v14.43h4.76
			c0.98,0,1.88-0.16,2.68-0.49c0.81-0.32,1.5-0.79,2.07-1.41c0.57-0.62,1.02-1.37,1.33-2.26
			C261.36,201.82,261.51,200.8,261.51,199.65z"/>
		<path d="M302.19,207.83h-0.91c-0.11,0-0.2-0.03-0.26-0.09c-0.07-0.06-0.12-0.13-0.16-0.23l-1.92-4.75h-8.01l-1.91,4.75
			c-0.03,0.09-0.08,0.16-0.16,0.22c-0.08,0.06-0.17,0.09-0.28,0.09h-0.9l6.67-16.34h1.18L302.19,207.83z M291.28,201.89h7.31
			l-3.33-8.26c-0.05-0.13-0.11-0.28-0.16-0.45c-0.05-0.17-0.11-0.34-0.16-0.53c-0.05,0.18-0.11,0.36-0.16,0.53
			c-0.05,0.17-0.11,0.32-0.16,0.46L291.28,201.89z"/>
		<path d="M337.83,191.48v1h-5.73v15.34h-1.18v-15.34h-5.76v-1H337.83z"/>
		<path d="M375.34,207.83h-0.91c-0.11,0-0.2-0.03-0.26-0.09c-0.07-0.06-0.12-0.13-0.16-0.23l-1.92-4.75h-8.01l-1.91,4.75
			c-0.03,0.09-0.08,0.16-0.16,0.22c-0.08,0.06-0.17,0.09-0.28,0.09h-0.9l6.67-16.34h1.18L375.34,207.83z M364.43,201.89h7.31
			l-3.33-8.26c-0.05-0.13-0.11-0.28-0.16-0.45c-0.05-0.17-0.11-0.34-0.16-0.53c-0.05,0.18-0.11,0.36-0.16,0.53
			c-0.05,0.17-0.11,0.32-0.16,0.46L364.43,201.89z"/>
		<path d="M437.74,193.47c-0.07,0.13-0.17,0.2-0.3,0.2c-0.1,0-0.23-0.07-0.39-0.21c-0.16-0.14-0.37-0.3-0.64-0.47
			s-0.61-0.33-1.01-0.48c-0.41-0.15-0.9-0.22-1.5-0.22c-0.59,0-1.12,0.09-1.57,0.25s-0.83,0.4-1.13,0.69
			c-0.3,0.29-0.54,0.63-0.69,1.02c-0.16,0.38-0.24,0.79-0.24,1.21c0,0.55,0.12,1.01,0.35,1.38c0.23,0.36,0.54,0.67,0.93,0.92
			c0.38,0.25,0.82,0.47,1.31,0.64c0.49,0.17,0.99,0.35,1.51,0.51s1.02,0.36,1.51,0.56c0.49,0.2,0.93,0.46,1.31,0.77
			c0.38,0.31,0.69,0.69,0.93,1.14c0.23,0.45,0.35,1.01,0.35,1.68c0,0.68-0.12,1.33-0.35,1.93c-0.23,0.6-0.57,1.13-1.02,1.58
			c-0.45,0.45-0.99,0.8-1.64,1.06c-0.65,0.26-1.38,0.39-2.21,0.39c-1.08,0-2-0.19-2.78-0.57c-0.78-0.38-1.46-0.9-2.04-1.56
			l0.32-0.51c0.09-0.12,0.2-0.17,0.32-0.17c0.07,0,0.16,0.05,0.27,0.14c0.11,0.09,0.24,0.21,0.39,0.34
			c0.15,0.14,0.34,0.28,0.55,0.44c0.21,0.16,0.47,0.3,0.75,0.44c0.29,0.13,0.61,0.25,0.98,0.34c0.37,0.09,0.79,0.14,1.26,0.14
			c0.65,0,1.22-0.1,1.73-0.29s0.94-0.46,1.29-0.8c0.35-0.34,0.62-0.74,0.8-1.21c0.18-0.47,0.28-0.96,0.28-1.5
			c0-0.58-0.12-1.05-0.35-1.43c-0.24-0.37-0.54-0.69-0.93-0.94c-0.38-0.25-0.82-0.46-1.31-0.63c-0.49-0.17-0.99-0.34-1.51-0.5
			c-0.52-0.16-1.02-0.34-1.51-0.54c-0.49-0.2-0.93-0.46-1.31-0.77c-0.38-0.31-0.69-0.7-0.93-1.17c-0.23-0.47-0.35-1.05-0.35-1.75
			c0-0.55,0.1-1.08,0.31-1.58c0.21-0.51,0.51-0.96,0.91-1.35c0.4-0.39,0.89-0.7,1.48-0.94c0.59-0.23,1.26-0.35,2.01-0.35
			c0.85,0,1.61,0.14,2.28,0.4c0.67,0.27,1.29,0.68,1.84,1.24L437.74,193.47z"/>
		<path d="M477.48,205.08c0.08,0,0.14,0.03,0.2,0.08l0.46,0.5c-0.34,0.36-0.71,0.69-1.11,0.98c-0.4,0.29-0.84,0.54-1.31,0.74
			c-0.47,0.2-0.99,0.36-1.56,0.47c-0.57,0.11-1.19,0.17-1.86,0.17c-1.13,0-2.16-0.2-3.11-0.59c-0.94-0.4-1.75-0.96-2.42-1.69
			c-0.67-0.73-1.2-1.61-1.57-2.64c-0.38-1.03-0.57-2.18-0.57-3.44c0-1.24,0.19-2.37,0.58-3.4c0.39-1.02,0.93-1.9,1.64-2.64
			c0.7-0.73,1.54-1.31,2.52-1.71c0.98-0.41,2.06-0.61,3.24-0.61c0.59,0,1.13,0.04,1.62,0.13c0.49,0.09,0.95,0.22,1.38,0.38
			c0.43,0.17,0.83,0.37,1.2,0.62c0.38,0.25,0.75,0.53,1.11,0.86l-0.36,0.52c-0.06,0.09-0.16,0.14-0.29,0.14
			c-0.07,0-0.16-0.04-0.26-0.12c-0.11-0.08-0.24-0.18-0.41-0.3c-0.17-0.12-0.37-0.25-0.6-0.39c-0.23-0.14-0.51-0.27-0.84-0.39
			c-0.32-0.12-0.7-0.22-1.12-0.3c-0.42-0.08-0.9-0.12-1.44-0.12c-0.99,0-1.9,0.17-2.73,0.51c-0.83,0.34-1.54,0.83-2.14,1.47
			c-0.6,0.63-1.07,1.4-1.4,2.31c-0.33,0.9-0.5,1.92-0.5,3.04c0,1.16,0.16,2.19,0.5,3.1c0.33,0.91,0.79,1.68,1.37,2.3
			c0.58,0.63,1.27,1.11,2.07,1.44c0.8,0.34,1.66,0.5,2.59,0.5c0.58,0,1.1-0.04,1.56-0.12c0.46-0.08,0.88-0.19,1.26-0.35
			c0.38-0.15,0.74-0.34,1.07-0.57c0.33-0.22,0.66-0.49,0.98-0.79c0.04-0.03,0.08-0.06,0.11-0.08
			C477.39,205.09,477.43,205.08,477.48,205.08z"/>
		<path d="M507.2,207.83h-1.19v-16.34h1.19V207.83z"/>
		<path d="M545.98,191.48v0.98h-8.58v6.61h7.14v0.96h-7.14v6.81h8.58v0.98h-9.77v-16.34H545.98z"/>
		<path d="M574.4,191.52c0.06,0.03,0.13,0.09,0.2,0.18l10.56,14.16c-0.02-0.23-0.04-0.45-0.04-0.67v-13.71h1.04v16.34h-0.57
			c-0.18,0-0.32-0.08-0.43-0.23l-10.6-14.18c0.02,0.23,0.03,0.45,0.03,0.66v13.76h-1.02v-16.34h0.58
			C574.25,191.48,574.34,191.5,574.4,191.52z"/>
		<path d="M625.38,191.48v1h-5.73v15.34h-1.18v-15.34h-5.76v-1H625.38z"/>
		<path d="M653.56,207.83h-1.19v-16.34h1.19V207.83z"/>
		<path d="M690.47,193.47c-0.07,0.13-0.17,0.2-0.3,0.2c-0.1,0-0.23-0.07-0.39-0.21c-0.16-0.14-0.37-0.3-0.64-0.47
			c-0.27-0.17-0.61-0.33-1.01-0.48c-0.41-0.15-0.9-0.22-1.5-0.22c-0.59,0-1.12,0.09-1.57,0.25c-0.45,0.17-0.83,0.4-1.13,0.69
			c-0.3,0.29-0.54,0.63-0.69,1.02c-0.16,0.38-0.24,0.79-0.24,1.21c0,0.55,0.12,1.01,0.35,1.38c0.23,0.36,0.54,0.67,0.93,0.92
			c0.38,0.25,0.82,0.47,1.31,0.64c0.49,0.17,0.99,0.35,1.51,0.51s1.02,0.36,1.51,0.56c0.49,0.2,0.93,0.46,1.31,0.77
			s0.69,0.69,0.93,1.14c0.23,0.45,0.35,1.01,0.35,1.68c0,0.68-0.12,1.33-0.35,1.93s-0.57,1.13-1.02,1.58
			c-0.45,0.45-0.99,0.8-1.64,1.06c-0.65,0.26-1.38,0.39-2.21,0.39c-1.08,0-2-0.19-2.78-0.57c-0.78-0.38-1.46-0.9-2.04-1.56
			l0.32-0.51c0.09-0.12,0.2-0.17,0.32-0.17c0.07,0,0.16,0.05,0.27,0.14c0.11,0.09,0.24,0.21,0.39,0.34
			c0.15,0.14,0.34,0.28,0.55,0.44c0.21,0.16,0.47,0.3,0.75,0.44c0.28,0.13,0.61,0.25,0.98,0.34c0.37,0.09,0.79,0.14,1.26,0.14
			c0.65,0,1.22-0.1,1.73-0.29s0.94-0.46,1.29-0.8c0.35-0.34,0.62-0.74,0.8-1.21s0.28-0.96,0.28-1.5c0-0.58-0.12-1.05-0.35-1.43
			c-0.24-0.37-0.54-0.69-0.93-0.94c-0.38-0.25-0.82-0.46-1.31-0.63c-0.49-0.17-0.99-0.34-1.51-0.5s-1.02-0.34-1.51-0.54
			c-0.49-0.2-0.93-0.46-1.31-0.77c-0.38-0.31-0.69-0.7-0.93-1.17c-0.23-0.47-0.35-1.05-0.35-1.75c0-0.55,0.1-1.08,0.31-1.58
			c0.21-0.51,0.51-0.96,0.91-1.35c0.4-0.39,0.89-0.7,1.48-0.94c0.59-0.23,1.26-0.35,2.01-0.35c0.85,0,1.61,0.14,2.28,0.4
			c0.67,0.27,1.29,0.68,1.84,1.24L690.47,193.47z"/>
		<path d="M729,191.48v1h-5.73v15.34h-1.18v-15.34h-5.76v-1H729z"/>
	</g>
	<g>
		<path d="M272.85,159.51c1.69,0,3.24-0.08,4.65-0.24c1.41-0.16,2.74-0.4,3.99-0.72c1.25-0.32,2.43-0.71,3.53-1.16
			c1.1-0.45,2.21-0.97,3.32-1.55v-13.82h-9.68c-0.55,0-1-0.16-1.33-0.48c-0.34-0.32-0.5-0.71-0.5-1.18v-4.81h19.2v24.05
			c-1.57,1.14-3.21,2.13-4.91,2.97c-1.7,0.85-3.52,1.55-5.45,2.12c-1.93,0.57-4.01,0.99-6.22,1.27c-2.21,0.28-4.61,0.42-7.2,0.42
			c-4.54,0-8.7-0.78-12.48-2.34c-3.78-1.56-7.04-3.75-9.77-6.56c-2.73-2.81-4.86-6.19-6.39-10.12c-1.53-3.94-2.29-8.26-2.29-12.99
			c0-4.78,0.75-9.14,2.25-13.08c1.5-3.94,3.64-7.31,6.41-10.12c2.78-2.81,6.14-4.99,10.08-6.54c3.94-1.54,8.35-2.32,13.24-2.32
			c2.47,0,4.77,0.18,6.89,0.55c2.12,0.37,4.09,0.89,5.91,1.57c1.82,0.69,3.5,1.52,5.04,2.49c1.54,0.98,2.98,2.08,4.32,3.3l-2.4,3.85
			c-0.49,0.79-1.13,1.18-1.92,1.18c-0.47,0-0.97-0.16-1.53-0.48c-0.73-0.41-1.54-0.9-2.44-1.49c-0.9-0.58-2-1.14-3.29-1.68
			c-1.29-0.54-2.82-1-4.58-1.38c-1.76-0.38-3.85-0.57-6.26-0.57c-3.52,0-6.7,0.58-9.55,1.73c-2.85,1.15-5.28,2.8-7.29,4.94
			c-2.01,2.14-3.55,4.74-4.63,7.78c-1.08,3.05-1.61,6.46-1.61,10.25c0,3.96,0.56,7.5,1.68,10.6c1.12,3.11,2.7,5.74,4.73,7.89
			c2.04,2.16,4.45,3.8,7.24,4.94C266.4,158.94,269.48,159.51,272.85,159.51z"/>
		<path d="M337.72,165.68h-3.45c-0.76,0-1.37-0.12-1.83-0.35c-0.47-0.23-0.77-0.73-0.92-1.49l-0.87-4.11
			c-1.16,1.05-2.3,1.99-3.4,2.82c-1.11,0.83-2.27,1.53-3.49,2.1c-1.22,0.57-2.52,1-3.91,1.29c-1.38,0.29-2.92,0.44-4.6,0.44
			c-1.72,0-3.32-0.24-4.82-0.72c-1.5-0.48-2.8-1.21-3.9-2.17c-1.11-0.97-1.99-2.19-2.64-3.67c-0.65-1.48-0.98-3.23-0.98-5.24
			c0-1.76,0.48-3.44,1.44-5.07c0.96-1.62,2.51-3.06,4.65-4.32c2.14-1.26,4.94-2.29,8.4-3.09c3.46-0.8,7.69-1.21,12.69-1.21v-3.48
			c0-3.46-0.73-6.08-2.2-7.86c-1.47-1.77-3.64-2.66-6.52-2.66c-1.89,0-3.48,0.24-4.78,0.72c-1.29,0.48-2.41,1.02-3.36,1.62
			c-0.95,0.6-1.76,1.14-2.44,1.62c-0.68,0.48-1.36,0.72-2.03,0.72c-0.52,0-0.98-0.14-1.37-0.42c-0.39-0.28-0.71-0.62-0.94-1.03
			l-1.4-2.49c2.44-2.36,5.07-4.12,7.9-5.29c2.82-1.16,5.95-1.75,9.38-1.75c2.47,0,4.67,0.41,6.59,1.22
			c1.92,0.82,3.53,1.95,4.84,3.41c1.31,1.46,2.3,3.22,2.97,5.29c0.67,2.07,1,4.34,1,6.82V165.68z M317.56,160.91
			c1.37,0,2.62-0.14,3.75-0.42c1.13-0.28,2.2-0.67,3.21-1.18c1-0.51,1.96-1.13,2.88-1.86s1.81-1.56,2.68-2.49v-9.14
			c-3.58,0-6.62,0.23-9.12,0.68c-2.5,0.45-4.54,1.05-6.11,1.78c-1.57,0.73-2.71,1.6-3.42,2.6c-0.71,1-1.07,2.11-1.07,3.34
			c0,1.17,0.19,2.18,0.57,3.03c0.38,0.85,0.89,1.55,1.53,2.09c0.64,0.54,1.4,0.94,2.27,1.19
			C315.6,160.79,316.54,160.91,317.56,160.91z"/>
		<path d="M347.36,165.68v-64.42h7.81v26.5c1.83-2.13,3.93-3.84,6.3-5.14s5.08-1.95,8.14-1.95c2.56,0,4.87,0.48,6.94,1.44
			c2.06,0.96,3.82,2.4,5.28,4.31c1.45,1.91,2.57,4.27,3.36,7.08c0.78,2.81,1.18,6.06,1.18,9.73c0,3.27-0.44,6.3-1.31,9.12
			c-0.87,2.81-2.13,5.25-3.77,7.3c-1.64,2.06-3.65,3.67-6.02,4.85c-2.37,1.18-5.04,1.77-8.01,1.77c-2.85,0-5.27-0.55-7.26-1.66
			c-1.99-1.11-3.73-2.65-5.21-4.64l-0.39,4.02c-0.23,1.11-0.9,1.66-2.01,1.66H347.36z M367.08,126.89c-2.53,0-4.75,0.58-6.65,1.75
			c-1.91,1.17-3.66,2.81-5.26,4.94v21.43c1.4,1.92,2.94,3.28,4.65,4.07c1.7,0.79,3.6,1.18,5.69,1.18c4.13,0,7.3-1.47,9.51-4.42
			c2.21-2.94,3.32-7.14,3.32-12.59c0-2.89-0.25-5.36-0.76-7.43c-0.51-2.07-1.24-3.77-2.2-5.09c-0.96-1.33-2.14-2.3-3.53-2.91
			C370.44,127.19,368.86,126.89,367.08,126.89z"/>
		<path d="M393.97,165.68v-44.3h4.45c0.84,0,1.42,0.16,1.75,0.48c0.32,0.32,0.54,0.87,0.65,1.66l0.52,6.91
			c1.51-3.09,3.38-5.5,5.61-7.24c2.22-1.73,4.84-2.6,7.83-2.6c1.22,0,2.33,0.14,3.32,0.42c0.99,0.28,1.9,0.66,2.75,1.16l-1,5.82
			c-0.2,0.73-0.65,1.09-1.35,1.09c-0.41,0-1.03-0.14-1.88-0.42c-0.84-0.28-2.02-0.42-3.53-0.42c-2.71,0-4.97,0.79-6.78,2.36
			c-1.82,1.57-3.34,3.86-4.56,6.87v28.21H393.97z"/>
		<path d="M436.41,107.47c0,0.76-0.15,1.46-0.46,2.12c-0.31,0.66-0.71,1.24-1.22,1.75c-0.51,0.51-1.1,0.91-1.77,1.2
			c-0.67,0.29-1.38,0.44-2.14,0.44c-0.76,0-1.46-0.15-2.12-0.44c-0.65-0.29-1.24-0.69-1.74-1.2c-0.51-0.51-0.91-1.09-1.2-1.75
			c-0.29-0.66-0.44-1.36-0.44-2.12s0.15-1.48,0.44-2.16c0.29-0.68,0.69-1.28,1.2-1.79c0.51-0.51,1.09-0.91,1.74-1.2
			c0.65-0.29,1.36-0.44,2.12-0.44c0.76,0,1.47,0.15,2.14,0.44c0.67,0.29,1.26,0.69,1.77,1.2c0.51,0.51,0.92,1.11,1.22,1.79
			C436.26,105.99,436.41,106.71,436.41,107.47z M434.67,121.38v44.3h-7.77v-44.3H434.67z"/>
		<path d="M462.95,120.68c2.65,0,5.09,0.45,7.33,1.33c2.24,0.89,4.17,2.17,5.8,3.85c1.63,1.68,2.9,3.75,3.82,6.21
			c0.92,2.46,1.37,5.27,1.37,8.42c0,1.22-0.13,2.04-0.39,2.45c-0.26,0.41-0.76,0.61-1.48,0.61H450c0.06,2.8,0.44,5.23,1.13,7.3
			c0.7,2.07,1.66,3.8,2.88,5.18c1.22,1.39,2.68,2.42,4.36,3.11c1.69,0.69,3.58,1.03,5.67,1.03c1.95,0,3.63-0.23,5.04-0.68
			c1.41-0.45,2.62-0.94,3.64-1.47c1.02-0.52,1.87-1.01,2.55-1.46c0.68-0.45,1.27-0.68,1.77-0.68c0.64,0,1.13,0.25,1.48,0.74
			l2.18,2.84c-0.96,1.17-2.11,2.18-3.45,3.04c-1.34,0.86-2.77,1.57-4.3,2.12c-1.53,0.55-3.11,0.97-4.73,1.25
			c-1.63,0.28-3.24,0.42-4.84,0.42c-3.05,0-5.87-0.52-8.44-1.55c-2.57-1.03-4.8-2.55-6.67-4.55c-1.88-2-3.34-4.47-4.38-7.41
			c-1.05-2.94-1.57-6.33-1.57-10.15c0-3.09,0.47-5.98,1.42-8.66c0.94-2.68,2.3-5.01,4.08-6.98c1.77-1.97,3.94-3.51,6.5-4.64
			C456.88,121.24,459.76,120.68,462.95,120.68z M463.13,126.41c-3.75,0-6.7,1.09-8.86,3.26c-2.15,2.17-3.49,5.18-4.01,9.03h24.04
			c0-1.81-0.25-3.46-0.74-4.96c-0.5-1.5-1.22-2.8-2.18-3.89c-0.96-1.09-2.13-1.94-3.51-2.54
			C466.48,126.71,464.9,126.41,463.13,126.41z"/>
		<path d="M497.04,101.26v64.42h-7.77v-64.42H497.04z"/>
		<path d="M525.7,120.68c2.65,0,5.09,0.45,7.33,1.33c2.24,0.89,4.17,2.17,5.8,3.85c1.63,1.68,2.9,3.75,3.82,6.21
			c0.92,2.46,1.37,5.27,1.37,8.42c0,1.22-0.13,2.04-0.39,2.45c-0.26,0.41-0.76,0.61-1.48,0.61h-29.4c0.06,2.8,0.44,5.23,1.13,7.3
			c0.7,2.07,1.66,3.8,2.88,5.18c1.22,1.39,2.68,2.42,4.36,3.11c1.69,0.69,3.58,1.03,5.67,1.03c1.95,0,3.63-0.23,5.04-0.68
			c1.41-0.45,2.62-0.94,3.64-1.47c1.02-0.52,1.87-1.01,2.55-1.46c0.68-0.45,1.27-0.68,1.77-0.68c0.64,0,1.13,0.25,1.48,0.74
			l2.18,2.84c-0.96,1.17-2.11,2.18-3.45,3.04c-1.34,0.86-2.77,1.57-4.3,2.12c-1.53,0.55-3.11,0.97-4.73,1.25
			c-1.63,0.28-3.24,0.42-4.84,0.42c-3.05,0-5.87-0.52-8.44-1.55c-2.57-1.03-4.8-2.55-6.67-4.55c-1.88-2-3.34-4.47-4.38-7.41
			s-1.57-6.33-1.57-10.15c0-3.09,0.47-5.98,1.42-8.66c0.94-2.68,2.3-5.01,4.08-6.98c1.77-1.97,3.94-3.51,6.5-4.64
			C519.62,121.24,522.5,120.68,525.7,120.68z M525.87,126.41c-3.75,0-6.7,1.09-8.86,3.26c-2.15,2.17-3.49,5.18-4.01,9.03h24.04
			c0-1.81-0.25-3.46-0.74-4.96c-0.5-1.5-1.22-2.8-2.18-3.89c-0.96-1.09-2.13-1.94-3.51-2.54
			C529.22,126.71,527.64,126.41,525.87,126.41z"/>
		<path d="M616.04,152.73c0.46,0,0.89,0.19,1.27,0.57l3.32,3.63c-2.56,2.97-5.66,5.29-9.31,6.95c-3.65,1.66-8.05,2.49-13.2,2.49
			c-4.51,0-8.59-0.78-12.26-2.34c-3.66-1.56-6.79-3.75-9.38-6.56c-2.59-2.81-4.6-6.19-6.02-10.12c-1.42-3.94-2.14-8.26-2.14-12.99
			c0-4.72,0.76-9.05,2.29-12.99c1.53-3.94,3.67-7.32,6.44-10.14c2.76-2.83,6.07-5.02,9.92-6.58c3.85-1.56,8.11-2.34,12.76-2.34
			c4.6,0,8.56,0.71,11.89,2.14c3.33,1.43,6.29,3.37,8.88,5.82l-2.75,3.89c-0.2,0.29-0.44,0.53-0.7,0.72
			c-0.26,0.19-0.64,0.28-1.13,0.28c-0.38,0-0.78-0.14-1.2-0.42c-0.42-0.28-0.92-0.62-1.5-1.03c-0.58-0.41-1.27-0.85-2.05-1.31
			c-0.79-0.47-1.72-0.9-2.79-1.31c-1.08-0.41-2.33-0.75-3.75-1.03c-1.42-0.28-3.07-0.42-4.93-0.42c-3.35,0-6.41,0.58-9.18,1.73
			c-2.78,1.15-5.17,2.79-7.18,4.92c-2.01,2.13-3.57,4.72-4.69,7.78c-1.12,3.06-1.68,6.49-1.68,10.28c0,3.91,0.56,7.39,1.68,10.45
			c1.12,3.06,2.65,5.65,4.58,7.76c1.93,2.11,4.22,3.72,6.87,4.83c2.65,1.11,5.5,1.66,8.55,1.66c1.86,0,3.53-0.11,5.02-0.33
			c1.48-0.22,2.86-0.56,4.12-1.03c1.27-0.47,2.44-1.06,3.53-1.77c1.09-0.71,2.19-1.57,3.29-2.56
			C615.1,152.95,615.58,152.73,616.04,152.73z"/>
		<path d="M645.79,120.68c3.23,0,6.14,0.54,8.75,1.62c2.6,1.08,4.81,2.61,6.63,4.59c1.82,1.98,3.21,4.38,4.19,7.19
			c0.97,2.81,1.46,5.96,1.46,9.42c0,3.5-0.49,6.65-1.46,9.45c-0.98,2.8-2.37,5.19-4.19,7.17c-1.82,1.98-4.03,3.51-6.63,4.57
			c-2.6,1.06-5.52,1.6-8.75,1.6s-6.14-0.53-8.75-1.6c-2.6-1.06-4.82-2.59-6.65-4.57c-1.83-1.98-3.24-4.37-4.23-7.17
			c-0.99-2.8-1.48-5.95-1.48-9.45c0-3.47,0.49-6.61,1.48-9.42c0.99-2.81,2.4-5.21,4.23-7.19c1.83-1.98,4.05-3.51,6.65-4.59
			C639.64,121.22,642.56,120.68,645.79,120.68z M645.79,160.21c4.36,0,7.62-1.46,9.77-4.39c2.15-2.93,3.23-7.02,3.23-12.27
			c0-5.28-1.08-9.39-3.23-12.33c-2.15-2.94-5.41-4.42-9.77-4.42c-2.21,0-4.13,0.38-5.76,1.14c-1.63,0.76-2.99,1.85-4.08,3.28
			c-1.09,1.43-1.91,3.19-2.44,5.27c-0.54,2.08-0.81,4.44-0.81,7.06c0,2.62,0.27,4.97,0.81,7.04c0.54,2.07,1.35,3.81,2.44,5.23
			c1.09,1.41,2.45,2.5,4.08,3.26C641.66,159.83,643.58,160.21,645.79,160.21z"/>
		<path d="M682.47,101.26v64.42h-7.77v-64.42H682.47z"/>
		<path d="M724.87,165.68h-3.45c-0.76,0-1.37-0.12-1.83-0.35c-0.47-0.23-0.77-0.73-0.92-1.49l-0.87-4.11
			c-1.16,1.05-2.3,1.99-3.4,2.82c-1.11,0.83-2.27,1.53-3.49,2.1c-1.22,0.57-2.52,1-3.91,1.29c-1.38,0.29-2.92,0.44-4.6,0.44
			c-1.72,0-3.32-0.24-4.82-0.72c-1.5-0.48-2.8-1.21-3.9-2.17c-1.11-0.97-1.99-2.19-2.64-3.67c-0.65-1.48-0.98-3.23-0.98-5.24
			c0-1.76,0.48-3.44,1.44-5.07c0.96-1.62,2.51-3.06,4.65-4.32c2.14-1.26,4.94-2.29,8.4-3.09c3.46-0.8,7.69-1.21,12.69-1.21v-3.48
			c0-3.46-0.73-6.08-2.2-7.86c-1.47-1.77-3.64-2.66-6.52-2.66c-1.89,0-3.48,0.24-4.78,0.72c-1.29,0.48-2.41,1.02-3.36,1.62
			c-0.95,0.6-1.76,1.14-2.44,1.62c-0.68,0.48-1.36,0.72-2.03,0.72c-0.52,0-0.98-0.14-1.37-0.42c-0.39-0.28-0.71-0.62-0.94-1.03
			l-1.4-2.49c2.44-2.36,5.07-4.12,7.9-5.29c2.82-1.16,5.95-1.75,9.38-1.75c2.47,0,4.67,0.41,6.59,1.22
			c1.92,0.82,3.53,1.95,4.84,3.41c1.31,1.46,2.3,3.22,2.97,5.29c0.67,2.07,1,4.34,1,6.82V165.68z M704.72,160.91
			c1.37,0,2.62-0.14,3.75-0.42c1.13-0.28,2.2-0.67,3.21-1.18c1-0.51,1.96-1.13,2.88-1.86c0.92-0.73,1.81-1.56,2.68-2.49v-9.14
			c-3.58,0-6.62,0.23-9.12,0.68c-2.5,0.45-4.54,1.05-6.11,1.78c-1.57,0.73-2.71,1.6-3.42,2.6c-0.71,1-1.07,2.11-1.07,3.34
			c0,1.17,0.19,2.18,0.57,3.03c0.38,0.85,0.89,1.55,1.53,2.09c0.64,0.54,1.4,0.94,2.27,1.19
			C702.76,160.79,703.7,160.91,704.72,160.91z"/>
	</g>
</g>
</svg>
